<svg width="21" height="18" viewBox="0 0 21 18" fill="none" xmlns="http://www.w3.org/2000/svg">
<path d="M19.5476 2.88095H6.45238M4.07143 2.88095H0.5M19.5476 14.7857H6.45238M4.07143 14.7857H0.5M13.5952 8.83333H0.5M19.5476 8.83333H15.9762M5.26191 0.5C5.57764 0.5 5.88044 0.625425 6.1037 0.848683C6.32696 1.07194 6.45238 1.37474 6.45238 1.69048V4.07143C6.45238 4.38716 6.32696 4.68996 6.1037 4.91322C5.88044 5.13648 5.57764 5.2619 5.26191 5.2619C4.94617 5.2619 4.64337 5.13648 4.42011 4.91322C4.19685 4.68996 4.07143 4.38716 4.07143 4.07143V1.69048C4.07143 1.37474 4.19685 1.07194 4.42011 0.848683C4.64337 0.625425 4.94617 0.5 5.26191 0.5V0.5ZM5.26191 12.4048C5.57764 12.4048 5.88044 12.5302 6.1037 12.7534C6.32696 12.9767 6.45238 13.2795 6.45238 13.5952V15.9762C6.45238 16.2919 6.32696 16.5947 6.1037 16.818C5.88044 17.0412 5.57764 17.1667 5.26191 17.1667C4.94617 17.1667 4.64337 17.0412 4.42011 16.818C4.19685 16.5947 4.07143 16.2919 4.07143 15.9762V13.5952C4.07143 13.2795 4.19685 12.9767 4.42011 12.7534C4.64337 12.5302 4.94617 12.4048 5.26191 12.4048ZM14.7857 6.45238C15.1014 6.45238 15.4043 6.57781 15.6275 6.80106C15.8508 7.02432 15.9762 7.32712 15.9762 7.64286V10.0238C15.9762 10.3395 15.8508 10.6423 15.6275 10.8656C15.4043 11.0889 15.1014 11.2143 14.7857 11.2143C14.47 11.2143 14.1672 11.0889 13.9439 10.8656C13.7207 10.6423 13.5952 10.3395 13.5952 10.0238V7.64286C13.5952 7.32712 13.7207 7.02432 13.9439 6.80106C14.1672 6.57781 14.47 6.45238 14.7857 6.45238V6.45238Z" stroke="black" stroke-linecap="round" stroke-linejoin="round"/>
</svg>
