<svg width="60" height="56" viewBox="0 0 60 56" fill="none" xmlns="http://www.w3.org/2000/svg">
<path d="M55.3479 29.0873V1.76499C55.3479 0.790245 54.5576 0 53.5829 0H6.29505C5.3203 0 4.53006 0.790245 4.53006 1.76499V31.2654C3.67863 31.3894 2.84626 31.7199 2.10991 32.2666C-0.211409 33.9126 -0.760439 37.5963 1.18399 39.8681L9.13386 49.5057C14.0549 55.2651 19.2824 55.9708 27.0538 55.9708C33.7228 55.9708 36.7043 56.0002 42.5164 54.6758L48.1759 53.3222C49.0936 54.6037 50.5504 55.4339 52.1882 55.4339H54.9762C57.7463 55.4339 59.9999 53.0597 59.9999 50.1415V34.3638C60 31.5773 57.9449 29.2885 55.3479 29.0873ZM47.4146 32.718L45.0629 31.5235C41.1963 29.5718 36.7258 29.4996 32.7981 31.3256C31.7265 31.7471 29.3893 33.1612 28.177 33.1139H20.0167C17.3099 33.1139 15.1076 35.316 15.1076 38.0229V39.3101C15.0925 39.2941 15.0766 39.2789 15.0616 39.2627L9.23423 32.9373C8.88158 32.5545 8.4854 32.2342 8.06016 31.9773V14.4663H22.504V20.9363C22.504 21.9111 23.2943 22.7013 24.269 22.7013H35.4062C36.3809 22.7013 37.1712 21.9111 37.1712 20.9363V14.4663H51.818V29.0871C49.7558 29.2465 48.0362 30.7218 47.4146 32.718ZM26.0339 14.4663H33.6411V19.1713H26.0339V14.4663ZM51.8179 10.9363H37.1712V3.52998H51.818V10.9363H51.8179ZM33.6412 3.52998V10.9365H26.034V3.52998H33.6412ZM22.5039 3.52998V10.9365H8.06004V3.52998H22.5039ZM41.6972 51.2421C36.3281 52.4718 33.0945 52.4221 27.1171 52.4221C19.8218 52.4221 16.2969 52.3042 11.8571 47.2594L3.90725 37.6217C2.52444 35.8211 5.02908 33.6954 6.63804 35.3289L12.4655 41.6543C14.0056 43.2794 15.9437 44.1738 18.3324 44.2264H34.4889C35.4636 44.2264 36.2539 43.4362 36.2539 42.4614C36.2539 41.4867 35.4636 40.6964 34.4889 40.6964H18.6375V38.0227C18.6375 37.2623 19.2561 36.6437 20.0165 36.6437H28.1769C30.0153 36.7753 32.6688 35.2403 34.2863 34.5264C37.2279 33.1586 40.5762 33.2127 43.4683 34.6725L47.1647 36.55V49.9343L41.6972 51.2421ZM56.4701 50.1414C56.4701 51.1132 55.7999 51.9038 54.9763 51.9038H52.1883C51.3646 51.9038 50.6947 51.1132 50.6947 50.1414V34.3638C50.6947 33.392 51.3648 32.6012 52.1883 32.6012H54.9763C55.7999 32.6012 56.4701 33.3918 56.4701 34.3638V50.1414Z" fill="#242424"/>
</svg>
