<svg width="53" height="60" viewBox="0 0 53 60" fill="none" xmlns="http://www.w3.org/2000/svg">
<path d="M51.1642 23.9628C50.7699 10.6825 39.8448 0 26.4706 0C13.0964 0 2.17129 10.6825 1.77682 23.9628L0 25.7396V37.7898L1.76471 39.5545V47.7647C1.76471 52.5652 5.67012 56.4706 10.4706 56.4706H12.6565C13.3849 58.5246 15.3465 60 17.6471 60H21.1765C23.4786 60 25.4412 58.5225 26.1685 56.4664C26.2693 56.4681 26.3704 56.4706 26.4706 56.4706C34.9927 56.4706 42.1233 50.3981 43.7628 42.3529H48.378L52.9412 37.7898V25.7396L51.1642 23.9628ZM26.4706 3.52941C36.9448 3.52941 45.666 11.174 47.3513 21.1765H43.7628C42.1233 13.1313 34.9927 7.05882 26.4706 7.05882C17.9485 7.05882 10.8179 13.1313 9.17835 21.1765H5.58988C7.27518 11.174 15.9964 3.52941 26.4706 3.52941ZM40.1415 21.1765C34.4369 21.1594 30.4075 21.5068 27.0854 16.6506L25.4722 14.2926L24.0859 16.7907C22.0659 20.4306 19.3455 21.1765 15.8824 21.1765H12.7996C14.3708 15.0944 19.9044 10.5882 26.4706 10.5882C33.0368 10.5882 38.5704 15.0944 40.1415 21.1765ZM8.82353 38.8235H6.02506L3.52941 36.3279V27.2015L6.02506 24.7059H8.82353V38.8235ZM5.29412 47.7647V42.3529H9.17494C9.83929 45.6441 11.4288 48.6652 13.7836 51.0916C13.29 51.6191 12.9028 52.2467 12.6565 52.9412H10.4706C7.61624 52.9412 5.29412 50.6191 5.29412 47.7647ZM21.1765 56.4706H17.6471C16.6739 56.4706 15.8824 55.6791 15.8824 54.7059C15.8824 53.7328 16.6739 52.9412 17.6471 52.9412H21.1765C22.1495 52.9412 22.9412 53.7328 22.9412 54.7059C22.9412 55.6791 22.1495 56.4706 21.1765 56.4706ZM40.5882 38.8235C40.5882 46.608 34.2551 52.9412 26.4706 52.9412C26.3694 52.9412 26.2674 52.9392 26.1655 52.9368C25.4359 50.8851 23.4754 49.4118 21.1765 49.4118C17.5529 49.4198 17.6107 49.3936 17.1591 49.4352C14.0953 46.7498 12.3529 42.9248 12.3529 38.8235V24.7059H15.8824C19.0055 24.7059 22.8091 24.1909 25.7533 20.6076C29.638 24.6786 34.3853 24.7059 38.6468 24.7059H40.5882V38.8235ZM49.4118 36.3279L46.9161 38.8235H44.1176V24.7059H46.9161L49.4118 27.2015V36.3279Z" fill="#242424"/>
</svg>
